<?xml version="1.0" encoding="utf-8"?>
<!-- Generator: Adobe Illustrator 21.1.0, SVG Export Plug-In . SVG Version: 6.00 Build 0)  -->
<svg version="1.1" id="Layer_1" xmlns="http://www.w3.org/2000/svg" xmlns:xlink="http://www.w3.org/1999/xlink" x="0px" y="0px"
	 viewBox="0 0 100 100" style="enable-background:new 0 0 100 100;" xml:space="preserve">
<style type="text/css">
	.st0{stroke:#000000;stroke-miterlimit:10;}
</style>
<rect x="45" y="85" class="st0" width="5" height="5"/>
<rect x="55" y="85" class="st0" width="5" height="5"/>
<rect x="50" y="85" class="st0" width="5" height="5"/>
<rect x="60" y="85" class="st0" width="5" height="5"/>
<rect x="65" y="85" class="st0" width="5" height="5"/>
<rect x="40" y="80" class="st0" width="5" height="5"/>
<rect x="35" y="80" class="st0" width="5" height="5"/>
<rect x="70" y="80" class="st0" width="5" height="5"/>
<rect x="25" y="75" class="st0" width="5" height="5"/>
<rect x="20" y="75" class="st0" width="5" height="5"/>
<rect x="30" y="75" class="st0" width="5" height="5"/>
<rect x="70" y="75" class="st0" width="5" height="5"/>
<rect x="65" y="75" class="st0" width="5" height="5"/>
<rect x="20" y="70" class="st0" width="5" height="5"/>
<rect x="40" y="70" class="st0" width="5" height="5"/>
<rect x="35" y="70" class="st0" width="5" height="5"/>
<rect x="45" y="70" class="st0" width="5" height="5"/>
<rect x="50" y="70" class="st0" width="5" height="5"/>
<rect x="75" y="70" class="st0" width="5" height="5"/>
<rect x="25" y="65" class="st0" width="5" height="5"/>
<rect x="70" y="65" class="st0" width="5" height="5"/>
<rect x="75" y="65" class="st0" width="5" height="5"/>
<rect x="65" y="65" class="st0" width="5" height="5"/>
<rect x="20" y="60" class="st0" width="5" height="5"/>
<rect x="40" y="60" class="st0" width="5" height="5"/>
<rect x="35" y="60" class="st0" width="5" height="5"/>
<rect x="45" y="60" class="st0" width="5" height="5"/>
<rect x="50" y="60" class="st0" width="5" height="5"/>
<rect x="75" y="60" class="st0" width="5" height="5"/>
<rect x="20" y="55" class="st0" width="5" height="5"/>
<rect x="75" y="55" class="st0" width="5" height="5"/>
<rect x="20" y="50" class="st0" width="5" height="5"/>
<rect x="40" y="50" class="st0" width="5" height="5"/>
<rect x="35" y="50" class="st0" width="5" height="5"/>
<rect x="45" y="50" class="st0" width="5" height="5"/>
<rect x="50" y="50" class="st0" width="5" height="5"/>
<rect x="70" y="50" class="st0" width="5" height="5"/>
<rect x="75" y="50" class="st0" width="5" height="5"/>
<rect x="65" y="50" class="st0" width="5" height="5"/>
<rect x="20" y="45" class="st0" width="5" height="5"/>
<rect x="75" y="45" class="st0" width="5" height="5"/>
<rect x="25" y="40" class="st0" width="5" height="5"/>
<rect x="20" y="40" class="st0" width="5" height="5"/>
<rect x="75" y="40" class="st0" width="5" height="5"/>
<rect x="30" y="35" class="st0" width="5" height="5"/>
<rect x="55" y="35" class="st0" width="5" height="5"/>
<rect x="70" y="35" class="st0" width="5" height="5"/>
<rect x="60" y="35" class="st0" width="5" height="5"/>
<rect x="65" y="35" class="st0" width="5" height="5"/>
<rect x="35" y="30" class="st0" width="5" height="5"/>
<rect x="60" y="30" class="st0" width="5" height="5"/>
<rect x="40" y="25" class="st0" width="5" height="5"/>
<rect x="45" y="25" class="st0" width="5" height="5"/>
<rect x="65" y="25" class="st0" width="5" height="5"/>
<rect x="50" y="15" class="st0" width="5" height="5"/>
<rect x="65" y="15" class="st0" width="5" height="5"/>
<rect x="65" y="20" class="st0" width="5" height="5"/>
<rect x="50" y="20" class="st0" width="5" height="5"/>
<rect x="55" y="10" class="st0" width="5" height="5"/>
<rect x="60" y="10" class="st0" width="5" height="5"/>
</svg>
